<?xml version="1.0" encoding="UTF-8" standalone="no"?>
<svg
   xmlns:dc="http://purl.org/dc/elements/1.1/"
   xmlns:cc="http://creativecommons.org/ns#"
   xmlns:rdf="http://www.w3.org/1999/02/22-rdf-syntax-ns#"
   xmlns:svg="http://www.w3.org/2000/svg"
   xmlns="http://www.w3.org/2000/svg"
   xmlns:sodipodi="http://sodipodi.sourceforge.net/DTD/sodipodi-0.dtd"
   xmlns:inkscape="http://www.inkscape.org/namespaces/inkscape"
   width="400"
   height="565.5"
   viewBox="-82.75 82.75 400 565.5"
   id="svg2"
   version="1.1"
   inkscape:version="0.91 r13725"
   sodipodi:docname="ipad.svg">
  <metadata
     id="metadata16">
    <rdf:RDF>
      <cc:Work
         rdf:about="">
        <dc:format>image/svg+xml</dc:format>
        <dc:type
           rdf:resource="http://purl.org/dc/dcmitype/StillImage" />
        <dc:title></dc:title>
      </cc:Work>
    </rdf:RDF>
  </metadata>
  <defs
     id="defs14" />
  <sodipodi:namedview
     pagecolor="#ffffff"
     bordercolor="#666666"
     borderopacity="1"
     objecttolerance="10"
     gridtolerance="10"
     guidetolerance="10"
     inkscape:pageopacity="0"
     inkscape:pageshadow="2"
     inkscape:window-width="1475"
     inkscape:window-height="598"
     id="namedview12"
     showgrid="false"
     fit-margin-top="0"
     fit-margin-left="0"
     fit-margin-right="0"
     fit-margin-bottom="0"
     inkscape:zoom="1.3554443"
     inkscape:cx="250.30611"
     inkscape:cy="100.184"
     inkscape:window-x="2334"
     inkscape:window-y="376"
     inkscape:window-maximized="0"
     inkscape:current-layer="svg2" />
  <path
     style="fill:#8d949f;fill-opacity:1"
     inkscape:connector-curvature="0"
     id="path6"
     d="m 310.25,89.65 c -4.5,-4.4 -10.5,-6.9 -17,-6.9 l -352.8,0 c -6.1,0 -11.9,2.5 -16.3,6.9 -4.5,4.5 -6.9,10.4 -6.9,16.7 l 0,518.3 c 0,13 11.4,23.6 25.4,23.6 l 349.2,0 c 6.8,0 13.1,-2.4 17.8,-6.9 4.9,-4.6 7.6,-10.9 7.6,-17.8 l 0,-517.2 c 0,-6.3 -2.5,-12.3 -7,-16.7 z m 5.2,533.9 c 0,13.5 -10.8,22.9 -23.6,22.9 l -349.2,0 c -13,0 -23.6,-9.8 -23.6,-21.8 l 0,-518.3 c 0,-12 9.8,-21.8 21.4,-21.8 l 352.8,0 c 12.5,0 22.2,9.8 22.2,21.8 l 0,517.2 z m -22.2,-536.3 -352.8,0 c -4.9,0 -9.6,2 -13.1,5.6 -3.6,3.6 -5.6,8.4 -5.6,13.5 l 0,518.3 c 0,10.5 9.4,19.1 20.9,19.1 l 349.2,0 c 5.6,0 10.9,-2 14.8,-5.7 4,-3.7 6.1,-8.9 6.1,-14.5 l 0,-517.2 c 0,-5.1 -2,-9.9 -5.6,-13.5 -3.7,-3.6 -8.6,-5.6 -13.9,-5.6 z m 17.7,536.3 c 0,5.1 -2,9.8 -5.6,13.2 -3.6,3.3 -8.4,5.2 -13.5,5.2 l -349.1,0 c -10.6,0 -19.2,-7.8 -19.2,-17.3 l 0,-518.3 c 0,-4.6 1.8,-9 5,-12.3 3.2,-3.3 7.4,-5.1 11.9,-5.1 l 352.8,0 c 4.8,0 9.3,1.8 12.6,5.1 3.3,3.2 5.1,7.6 5.1,12.2 l 0,517.3 z m -21.2,-490.3 -344.8,0 c -1.2,0 -2.2,1 -2.2,2.2 l 0,459.7 c 0,1.2 1,2.2 2.2,2.2 l 344.8,0 c 1.2,0 2.2,-1 2.2,-2.2 l 0,-459.6 c 0,-1.3 -1,-2.3 -2.2,-2.3 z m 0,462 -344.8,0 0,-459.7 344.8,0 0,459.7 z m -172.6,-481.6 c 1.9,0 3.4,-1.5 3.4,-3.4 0,-1.9 -1.5,-3.4 -3.4,-3.4 -1.9,0 -3.4,1.5 -3.4,3.4 0,1.9 1.5,3.4 3.4,3.4 z m 0,-5.4 c 1.1,0 2,0.9 2,2 0,1.1 -0.9,2 -2,2 -1.1,0 -2,-0.9 -2,-2 -0.1,-1.1 0.9,-2 2,-2 z" />
  <circle
     style="fill:#8d949f;fill-opacity:1"
     r="1.8"
     id="ellipse8"
     cy="-107.45001"
     cx="110.35"
     transform="matrix(0,1,-1,0,0,0)" />
  <path
     style="fill:#8d949f;fill-opacity:1"
     inkscape:connector-curvature="0"
     id="path10"
     d="m 117.05,608.75 c -7.4,0 -13.5,6 -13.5,13.5 l 0,0.3 c 0.2,7.3 6.1,13.1 13.5,13.1 7.4,0 13.5,-6 13.5,-13.5 0,-7.5 -6,-13.4 -13.5,-13.4 z m 0,25.2 c -3.1,0 -6,-1.2 -8.2,-3.3 -2.2,-2.1 -3.4,-5 -3.5,-8.1 l 0,-0.3 c 0,-6.4 5.2,-11.7 11.7,-11.7 6.5,0 11.7,5.2 11.7,11.7 0,6.4 -5.2,11.7 -11.7,11.7 z m 2.6,-17 -5.3,0 c -1.3,0 -2.3,1 -2.3,2.3 l 0,5.3 c 0,1.3 1,2.3 2.3,2.3 l 5.3,0 c 1.3,0 2.3,-1 2.3,-2.3 l 0,-5.3 c 0,-1.3 -1,-2.3 -2.3,-2.3 z m 0.5,7.6 c 0,0.3 -0.2,0.5 -0.5,0.5 l -5.3,0 c -0.3,0 -0.5,-0.2 -0.5,-0.5 l 0,-5.3 c 0,-0.3 0.2,-0.5 0.5,-0.5 l 5.3,0 c 0.3,0 0.5,0.2 0.5,0.5 l 0,5.3 z" />
</svg>
